<?xml version="1.0" encoding="UTF-8"?>
<svg xmlns="http://www.w3.org/2000/svg" xmlns:xlink="http://www.w3.org/1999/xlink" width="600pt" height="600pt" viewBox="0 0 600 600" version="1.1">
<g id="surface8">
<rect x="0" y="0" width="600" height="600" style="fill:rgb(100%,100%,100%);fill-opacity:1;stroke:none;"/>
<path style="fill:none;stroke-width:1;stroke-linecap:butt;stroke-linejoin:miter;stroke:rgb(26.666667%,26.666667%,26.666667%);stroke-opacity:1;stroke-miterlimit:10;" d="M 497.699219 465.277344 L 492 493.136719 "/>
<path style="fill:none;stroke-width:1;stroke-linecap:butt;stroke-linejoin:miter;stroke:rgb(26.666667%,26.666667%,26.666667%);stroke-opacity:1;stroke-miterlimit:10;" d="M 280.953125 231.34375 L 262.410156 211.652344 "/>
<path style="fill:none;stroke-width:1;stroke-linecap:butt;stroke-linejoin:miter;stroke:rgb(26.666667%,26.666667%,26.666667%);stroke-opacity:1;stroke-miterlimit:10;" d="M 556.558594 414.300781 L 542.972656 437.625 "/>
<path style="fill:none;stroke-width:1;stroke-linecap:butt;stroke-linejoin:miter;stroke:rgb(26.666667%,26.666667%,26.666667%);stroke-opacity:1;stroke-miterlimit:10;" d="M 225.183594 528.1875 L 228.929688 554.890625 "/>
<path style="fill:none;stroke-width:1;stroke-linecap:butt;stroke-linejoin:miter;stroke:rgb(26.666667%,26.666667%,26.666667%);stroke-opacity:1;stroke-miterlimit:10;" d="M 412.359375 346.882812 L 387.152344 335.085938 "/>
<path style="fill:none;stroke-width:1;stroke-linecap:butt;stroke-linejoin:miter;stroke:rgb(26.666667%,26.666667%,26.666667%);stroke-opacity:1;stroke-miterlimit:10;" d="M 225.183594 528.1875 L 235.199219 503.21875 "/>
<path style="fill:none;stroke-width:1;stroke-linecap:butt;stroke-linejoin:miter;stroke:rgb(26.666667%,26.666667%,26.666667%);stroke-opacity:1;stroke-miterlimit:10;" d="M 497.699219 465.277344 L 473.613281 454.285156 "/>
<path style="fill:none;stroke-width:1;stroke-linecap:butt;stroke-linejoin:miter;stroke:rgb(26.666667%,26.666667%,26.666667%);stroke-opacity:1;stroke-miterlimit:10;" d="M 434.042969 419.855469 L 412.023438 440.007812 "/>
<path style="fill:none;stroke-width:1;stroke-linecap:butt;stroke-linejoin:miter;stroke:rgb(26.666667%,26.666667%,26.666667%);stroke-opacity:1;stroke-miterlimit:10;" d="M 121.148438 152.273438 L 106.191406 174.65625 "/>
<path style="fill:none;stroke-width:1;stroke-linecap:butt;stroke-linejoin:miter;stroke:rgb(26.666667%,26.666667%,26.666667%);stroke-opacity:1;stroke-miterlimit:10;" d="M 58.449219 427.550781 L 84.554688 424.089844 "/>
<path style="fill:none;stroke-width:1;stroke-linecap:butt;stroke-linejoin:miter;stroke:rgb(26.666667%,26.666667%,26.666667%);stroke-opacity:1;stroke-miterlimit:10;" d="M 20 321.945312 L 40.476562 305.4375 "/>
<path style="fill:none;stroke-width:1;stroke-linecap:butt;stroke-linejoin:miter;stroke:rgb(26.666667%,26.666667%,26.666667%);stroke-opacity:1;stroke-miterlimit:10;" d="M 390.617188 120.140625 L 406.054688 98.601562 "/>
<path style="fill:none;stroke-width:1;stroke-linecap:butt;stroke-linejoin:miter;stroke:rgb(26.666667%,26.666667%,26.666667%);stroke-opacity:1;stroke-miterlimit:10;" d="M 79.753906 242.65625 L 65.429688 219.804688 "/>
<path style="fill:none;stroke-width:1;stroke-linecap:butt;stroke-linejoin:miter;stroke:rgb(26.666667%,26.666667%,26.666667%);stroke-opacity:1;stroke-miterlimit:10;" d="M 228.929688 554.890625 L 247.417969 574.25 "/>
<path style="fill:none;stroke-width:1;stroke-linecap:butt;stroke-linejoin:miter;stroke:rgb(26.666667%,26.666667%,26.666667%);stroke-opacity:1;stroke-miterlimit:10;" d="M 127.933594 80.234375 L 105.261719 94.238281 "/>
<path style="fill:none;stroke-width:1;stroke-linecap:butt;stroke-linejoin:miter;stroke:rgb(26.666667%,26.666667%,26.666667%);stroke-opacity:1;stroke-miterlimit:10;" d="M 121.148438 152.273438 L 147.90625 148.539062 "/>
<path style="fill:none;stroke-width:1;stroke-linecap:butt;stroke-linejoin:miter;stroke:rgb(26.666667%,26.666667%,26.666667%);stroke-opacity:1;stroke-miterlimit:10;" d="M 497.699219 465.277344 L 522.75 454.835938 "/>
<path style="fill:none;stroke-width:1;stroke-linecap:butt;stroke-linejoin:miter;stroke:rgb(26.666667%,26.666667%,26.666667%);stroke-opacity:1;stroke-miterlimit:10;" d="M 542.972656 437.625 L 522.75 454.835938 "/>
<path style="fill:none;stroke-width:1;stroke-linecap:butt;stroke-linejoin:miter;stroke:rgb(26.666667%,26.666667%,26.666667%);stroke-opacity:1;stroke-miterlimit:10;" d="M 295.605469 541.199219 L 301.925781 567.851562 "/>
<path style="fill:none;stroke-width:1;stroke-linecap:butt;stroke-linejoin:miter;stroke:rgb(26.666667%,26.666667%,26.666667%);stroke-opacity:1;stroke-miterlimit:10;" d="M 434.042969 419.855469 L 428.234375 390.921875 "/>
<path style="fill:none;stroke-width:1;stroke-linecap:butt;stroke-linejoin:miter;stroke:rgb(26.666667%,26.666667%,26.666667%);stroke-opacity:1;stroke-miterlimit:10;" d="M 280.339844 83.714844 L 258.550781 68.234375 "/>
<path style="fill:none;stroke-width:1;stroke-linecap:butt;stroke-linejoin:miter;stroke:rgb(26.666667%,26.666667%,26.666667%);stroke-opacity:1;stroke-miterlimit:10;" d="M 193.757812 248.394531 L 166.953125 247.082031 "/>
<path style="fill:none;stroke-width:1;stroke-linecap:butt;stroke-linejoin:miter;stroke:rgb(26.666667%,26.666667%,26.666667%);stroke-opacity:1;stroke-miterlimit:10;" d="M 458.285156 312.378906 L 466.285156 286.914062 "/>
<path style="fill:none;stroke-width:1;stroke-linecap:butt;stroke-linejoin:miter;stroke:rgb(26.666667%,26.666667%,26.666667%);stroke-opacity:1;stroke-miterlimit:10;" d="M 406.054688 98.601562 L 429.6875 84.746094 "/>
<path style="fill:none;stroke-width:1;stroke-linecap:butt;stroke-linejoin:miter;stroke:rgb(26.666667%,26.666667%,26.666667%);stroke-opacity:1;stroke-miterlimit:10;" d="M 428.125 56.695312 L 429.6875 84.746094 "/>
<path style="fill:none;stroke-width:1;stroke-linecap:butt;stroke-linejoin:miter;stroke:rgb(26.666667%,26.666667%,26.666667%);stroke-opacity:1;stroke-miterlimit:10;" d="M 466.285156 286.914062 L 489.644531 273.363281 "/>
<path style="fill:none;stroke-width:1;stroke-linecap:butt;stroke-linejoin:miter;stroke:rgb(26.666667%,26.666667%,26.666667%);stroke-opacity:1;stroke-miterlimit:10;" d="M 516.78125 272.246094 L 489.644531 273.363281 "/>
<path style="fill:none;stroke-width:1;stroke-linecap:butt;stroke-linejoin:miter;stroke:rgb(26.666667%,26.666667%,26.666667%);stroke-opacity:1;stroke-miterlimit:10;" d="M 147.90625 148.539062 L 164.574219 127.511719 "/>
<path style="fill:none;stroke-width:1;stroke-linecap:butt;stroke-linejoin:miter;stroke:rgb(26.666667%,26.666667%,26.666667%);stroke-opacity:1;stroke-miterlimit:10;" d="M 434.042969 419.855469 L 454.765625 437.21875 "/>
<path style="fill:none;stroke-width:1;stroke-linecap:butt;stroke-linejoin:miter;stroke:rgb(26.666667%,26.666667%,26.666667%);stroke-opacity:1;stroke-miterlimit:10;" d="M 473.613281 454.285156 L 454.765625 437.21875 "/>
<path style="fill:none;stroke-width:1;stroke-linecap:butt;stroke-linejoin:miter;stroke:rgb(26.666667%,26.666667%,26.666667%);stroke-opacity:1;stroke-miterlimit:10;" d="M 490.410156 344.351562 L 459.964844 340.421875 "/>
<path style="fill:none;stroke-width:1;stroke-linecap:butt;stroke-linejoin:miter;stroke:rgb(26.666667%,26.666667%,26.666667%);stroke-opacity:1;stroke-miterlimit:10;" d="M 458.285156 312.378906 L 459.964844 340.421875 "/>
<path style="fill:none;stroke-width:1;stroke-linecap:butt;stroke-linejoin:miter;stroke:rgb(26.666667%,26.666667%,26.666667%);stroke-opacity:1;stroke-miterlimit:10;" d="M 351.4375 575.089844 L 325.554688 580 "/>
<path style="fill:none;stroke-width:1;stroke-linecap:butt;stroke-linejoin:miter;stroke:rgb(26.666667%,26.666667%,26.666667%);stroke-opacity:1;stroke-miterlimit:10;" d="M 301.925781 567.851562 L 325.554688 580 "/>
<path style="fill:none;stroke-width:1;stroke-linecap:butt;stroke-linejoin:miter;stroke:rgb(26.666667%,26.666667%,26.666667%);stroke-opacity:1;stroke-miterlimit:10;" d="M 429.6875 84.746094 L 454.472656 97.042969 "/>
<path style="fill:none;stroke-width:1;stroke-linecap:butt;stroke-linejoin:miter;stroke:rgb(26.666667%,26.666667%,26.666667%);stroke-opacity:1;stroke-miterlimit:10;" d="M 111.949219 380.621094 L 104.964844 406.808594 "/>
<path style="fill:none;stroke-width:1;stroke-linecap:butt;stroke-linejoin:miter;stroke:rgb(26.666667%,26.666667%,26.666667%);stroke-opacity:1;stroke-miterlimit:10;" d="M 84.554688 424.089844 L 104.964844 406.808594 "/>
<path style="fill:none;stroke-width:1;stroke-linecap:butt;stroke-linejoin:miter;stroke:rgb(26.666667%,26.666667%,26.666667%);stroke-opacity:1;stroke-miterlimit:10;" d="M 556.730469 206.011719 L 567.339844 230.738281 "/>
<path style="fill:none;stroke-width:1;stroke-linecap:butt;stroke-linejoin:miter;stroke:rgb(26.666667%,26.666667%,26.666667%);stroke-opacity:1;stroke-miterlimit:10;" d="M 535.265625 162.136719 L 511.335938 173.589844 "/>
<path style="fill:none;stroke-width:1;stroke-linecap:butt;stroke-linejoin:miter;stroke:rgb(26.666667%,26.666667%,26.666667%);stroke-opacity:1;stroke-miterlimit:10;" d="M 484.96875 168.828125 L 511.335938 173.589844 "/>
<path style="fill:none;stroke-width:1;stroke-linecap:butt;stroke-linejoin:miter;stroke:rgb(26.666667%,26.666667%,26.666667%);stroke-opacity:1;stroke-miterlimit:10;" d="M 428.234375 390.921875 L 398.597656 394.234375 "/>
<path style="fill:none;stroke-width:1;stroke-linecap:butt;stroke-linejoin:miter;stroke:rgb(26.666667%,26.666667%,26.666667%);stroke-opacity:1;stroke-miterlimit:10;" d="M 405.9375 559.390625 L 429.613281 548.410156 "/>
<path style="fill:none;stroke-width:1;stroke-linecap:butt;stroke-linejoin:miter;stroke:rgb(26.666667%,26.666667%,26.666667%);stroke-opacity:1;stroke-miterlimit:10;" d="M 463.546875 373.382812 L 438.136719 361.910156 "/>
<path style="fill:none;stroke-width:1;stroke-linecap:butt;stroke-linejoin:miter;stroke:rgb(26.666667%,26.666667%,26.666667%);stroke-opacity:1;stroke-miterlimit:10;" d="M 412.359375 346.882812 L 438.136719 361.910156 "/>
<path style="fill:none;stroke-width:1;stroke-linecap:butt;stroke-linejoin:miter;stroke:rgb(26.666667%,26.666667%,26.666667%);stroke-opacity:1;stroke-miterlimit:10;" d="M 428.234375 390.921875 L 438.136719 361.910156 "/>
<path style="fill:none;stroke-width:1;stroke-linecap:butt;stroke-linejoin:miter;stroke:rgb(26.666667%,26.666667%,26.666667%);stroke-opacity:1;stroke-miterlimit:10;" d="M 459.964844 340.421875 L 438.136719 361.910156 "/>
<path style="fill-rule:nonzero;fill:rgb(100%,0%,100%);fill-opacity:1;stroke-width:1;stroke-linecap:butt;stroke-linejoin:miter;stroke:rgb(0%,0%,0%);stroke-opacity:1;stroke-miterlimit:10;" d="M 500.199219 465.277344 C 500.199219 468.609375 495.199219 468.609375 495.199219 465.277344 C 495.199219 461.945312 500.199219 461.945312 500.199219 465.277344 "/>
<path style="fill-rule:nonzero;fill:rgb(100%,0%,100%);fill-opacity:1;stroke-width:1;stroke-linecap:butt;stroke-linejoin:miter;stroke:rgb(0%,0%,0%);stroke-opacity:1;stroke-miterlimit:10;" d="M 559.058594 414.300781 C 559.058594 417.632812 554.058594 417.632812 554.058594 414.300781 C 554.058594 410.964844 559.058594 410.964844 559.058594 414.300781 "/>
<path style="fill-rule:nonzero;fill:rgb(0%,0%,100%);fill-opacity:1;stroke-width:1;stroke-linecap:butt;stroke-linejoin:miter;stroke:rgb(0%,0%,0%);stroke-opacity:1;stroke-miterlimit:10;" d="M 337.539062 83.8125 C 337.539062 87.148438 332.539062 87.148438 332.539062 83.8125 C 332.539062 80.480469 337.539062 80.480469 337.539062 83.8125 "/>
<path style="fill-rule:nonzero;fill:rgb(0%,0%,100%);fill-opacity:1;stroke-width:1;stroke-linecap:butt;stroke-linejoin:miter;stroke:rgb(0%,0%,0%);stroke-opacity:1;stroke-miterlimit:10;" d="M 537.765625 162.136719 C 537.765625 165.46875 532.765625 165.46875 532.765625 162.136719 C 532.765625 158.800781 537.765625 158.800781 537.765625 162.136719 "/>
<path style="fill-rule:nonzero;fill:rgb(0%,0%,100%);fill-opacity:1;stroke-width:1;stroke-linecap:butt;stroke-linejoin:miter;stroke:rgb(0%,0%,0%);stroke-opacity:1;stroke-miterlimit:10;" d="M 393.117188 120.140625 C 393.117188 123.472656 388.117188 123.472656 388.117188 120.140625 C 388.117188 116.804688 393.117188 116.804688 393.117188 120.140625 "/>
<path style="fill-rule:nonzero;fill:rgb(0%,0%,100%);fill-opacity:1;stroke-width:1;stroke-linecap:butt;stroke-linejoin:miter;stroke:rgb(0%,0%,0%);stroke-opacity:1;stroke-miterlimit:10;" d="M 512.972656 125.257812 C 512.972656 128.589844 507.972656 128.589844 507.972656 125.257812 C 507.972656 121.925781 512.972656 121.925781 512.972656 125.257812 "/>
<path style="fill-rule:nonzero;fill:rgb(0%,0%,100%);fill-opacity:1;stroke-width:1;stroke-linecap:butt;stroke-linejoin:miter;stroke:rgb(0%,0%,0%);stroke-opacity:1;stroke-miterlimit:10;" d="M 492.910156 344.351562 C 492.910156 347.6875 487.910156 347.6875 487.910156 344.351562 C 487.910156 341.019531 492.910156 341.019531 492.910156 344.351562 "/>
<path style="fill-rule:nonzero;fill:rgb(0%,100%,0%);fill-opacity:1;stroke-width:1;stroke-linecap:butt;stroke-linejoin:miter;stroke:rgb(0%,0%,0%);stroke-opacity:1;stroke-miterlimit:10;" d="M 82.253906 242.65625 C 82.253906 245.988281 77.253906 245.988281 77.253906 242.65625 C 77.253906 239.320312 82.253906 239.320312 82.253906 242.65625 "/>
<path style="fill-rule:nonzero;fill:rgb(0%,100%,0%);fill-opacity:1;stroke-width:1;stroke-linecap:butt;stroke-linejoin:miter;stroke:rgb(0%,0%,0%);stroke-opacity:1;stroke-miterlimit:10;" d="M 494.5 493.136719 C 494.5 496.46875 489.5 496.46875 489.5 493.136719 C 489.5 489.800781 494.5 489.800781 494.5 493.136719 "/>
<path style="fill-rule:nonzero;fill:rgb(0%,0%,100%);fill-opacity:1;stroke-width:1;stroke-linecap:butt;stroke-linejoin:miter;stroke:rgb(0%,0%,0%);stroke-opacity:1;stroke-miterlimit:10;" d="M 79.734375 472.667969 C 79.734375 476 74.734375 476 74.734375 472.667969 C 74.734375 469.335938 79.734375 469.335938 79.734375 472.667969 "/>
<path style="fill-rule:nonzero;fill:rgb(0%,0%,100%);fill-opacity:1;stroke-width:1;stroke-linecap:butt;stroke-linejoin:miter;stroke:rgb(0%,0%,0%);stroke-opacity:1;stroke-miterlimit:10;" d="M 283.453125 231.34375 C 283.453125 234.679688 278.453125 234.679688 278.453125 231.34375 C 278.453125 228.011719 283.453125 228.011719 283.453125 231.34375 "/>
<path style="fill-rule:nonzero;fill:rgb(0%,0%,100%);fill-opacity:1;stroke-width:1;stroke-linecap:butt;stroke-linejoin:miter;stroke:rgb(0%,0%,0%);stroke-opacity:1;stroke-miterlimit:10;" d="M 164.21875 484.507812 C 164.21875 487.84375 159.21875 487.84375 159.21875 484.507812 C 159.21875 481.175781 164.21875 481.175781 164.21875 484.507812 "/>
<path style="fill-rule:nonzero;fill:rgb(0%,100%,0%);fill-opacity:1;stroke-width:1;stroke-linecap:butt;stroke-linejoin:miter;stroke:rgb(0%,0%,0%);stroke-opacity:1;stroke-miterlimit:10;" d="M 466.046875 373.382812 C 466.046875 376.714844 461.046875 376.714844 461.046875 373.382812 C 461.046875 370.050781 466.046875 370.050781 466.046875 373.382812 "/>
<path style="fill-rule:nonzero;fill:rgb(0%,0%,100%);fill-opacity:1;stroke-width:1;stroke-linecap:butt;stroke-linejoin:miter;stroke:rgb(0%,0%,0%);stroke-opacity:1;stroke-miterlimit:10;" d="M 264.910156 211.652344 C 264.910156 214.984375 259.910156 214.984375 259.910156 211.652344 C 259.910156 208.316406 264.910156 208.316406 264.910156 211.652344 "/>
<path style="fill-rule:nonzero;fill:rgb(0%,0%,100%);fill-opacity:1;stroke-width:1;stroke-linecap:butt;stroke-linejoin:miter;stroke:rgb(0%,0%,0%);stroke-opacity:1;stroke-miterlimit:10;" d="M 227.230469 416.320312 C 227.230469 419.652344 222.230469 419.652344 222.230469 416.320312 C 222.230469 412.984375 227.230469 412.984375 227.230469 416.320312 "/>
<path style="fill-rule:nonzero;fill:rgb(0%,0%,100%);fill-opacity:1;stroke-width:1;stroke-linecap:butt;stroke-linejoin:miter;stroke:rgb(0%,0%,0%);stroke-opacity:1;stroke-miterlimit:10;" d="M 286.855469 20 C 286.855469 23.332031 281.855469 23.332031 281.855469 20 C 281.855469 16.667969 286.855469 16.667969 286.855469 20 "/>
<path style="fill-rule:nonzero;fill:rgb(0%,100%,0%);fill-opacity:1;stroke-width:1;stroke-linecap:butt;stroke-linejoin:miter;stroke:rgb(0%,0%,0%);stroke-opacity:1;stroke-miterlimit:10;" d="M 545.472656 437.625 C 545.472656 440.960938 540.472656 440.960938 540.472656 437.625 C 540.472656 434.292969 545.472656 434.292969 545.472656 437.625 "/>
<path style="fill-rule:nonzero;fill:rgb(0%,0%,100%);fill-opacity:1;stroke-width:1;stroke-linecap:butt;stroke-linejoin:miter;stroke:rgb(0%,0%,0%);stroke-opacity:1;stroke-miterlimit:10;" d="M 202.898438 34.386719 C 202.898438 37.71875 197.898438 37.71875 197.898438 34.386719 C 197.898438 31.054688 202.898438 31.054688 202.898438 34.386719 "/>
<path style="fill-rule:nonzero;fill:rgb(0%,0%,100%);fill-opacity:1;stroke-width:1;stroke-linecap:butt;stroke-linejoin:miter;stroke:rgb(0%,0%,0%);stroke-opacity:1;stroke-miterlimit:10;" d="M 389.570312 33.972656 C 389.570312 37.308594 384.570312 37.308594 384.570312 33.972656 C 384.570312 30.640625 389.570312 30.640625 389.570312 33.972656 "/>
<path style="fill-rule:nonzero;fill:rgb(0%,0%,100%);fill-opacity:1;stroke-width:1;stroke-linecap:butt;stroke-linejoin:miter;stroke:rgb(0%,0%,0%);stroke-opacity:1;stroke-miterlimit:10;" d="M 130.433594 80.234375 C 130.433594 83.566406 125.433594 83.566406 125.433594 80.234375 C 125.433594 76.898438 130.433594 76.898438 130.433594 80.234375 "/>
<path style="fill-rule:nonzero;fill:rgb(0%,0%,100%);fill-opacity:1;stroke-width:1;stroke-linecap:butt;stroke-linejoin:miter;stroke:rgb(0%,0%,0%);stroke-opacity:1;stroke-miterlimit:10;" d="M 123.648438 152.273438 C 123.648438 155.605469 118.648438 155.605469 118.648438 152.273438 C 118.648438 148.941406 123.648438 148.941406 123.648438 152.273438 "/>
<path style="fill-rule:nonzero;fill:rgb(0%,0%,100%);fill-opacity:1;stroke-width:1;stroke-linecap:butt;stroke-linejoin:miter;stroke:rgb(0%,0%,0%);stroke-opacity:1;stroke-miterlimit:10;" d="M 414.859375 346.882812 C 414.859375 350.214844 409.859375 350.214844 409.859375 346.882812 C 409.859375 343.546875 414.859375 343.546875 414.859375 346.882812 "/>
<path style="fill-rule:nonzero;fill:rgb(0%,0%,100%);fill-opacity:1;stroke-width:1;stroke-linecap:butt;stroke-linejoin:miter;stroke:rgb(0%,0%,0%);stroke-opacity:1;stroke-miterlimit:10;" d="M 298.105469 541.199219 C 298.105469 544.535156 293.105469 544.535156 293.105469 541.199219 C 293.105469 537.867188 298.105469 537.867188 298.105469 541.199219 "/>
<path style="fill-rule:nonzero;fill:rgb(0%,0%,100%);fill-opacity:1;stroke-width:1;stroke-linecap:butt;stroke-linejoin:miter;stroke:rgb(0%,0%,0%);stroke-opacity:1;stroke-miterlimit:10;" d="M 320.769531 492.140625 C 320.769531 495.472656 315.769531 495.472656 315.769531 492.140625 C 315.769531 488.804688 320.769531 488.804688 320.769531 492.140625 "/>
<path style="fill-rule:nonzero;fill:rgb(0%,0%,100%);fill-opacity:1;stroke-width:1;stroke-linecap:butt;stroke-linejoin:miter;stroke:rgb(0%,0%,0%);stroke-opacity:1;stroke-miterlimit:10;" d="M 227.683594 528.1875 C 227.683594 531.519531 222.683594 531.519531 222.683594 528.1875 C 222.683594 524.851562 227.683594 524.851562 227.683594 528.1875 "/>
<path style="fill-rule:nonzero;fill:rgb(0%,0%,100%);fill-opacity:1;stroke-width:1;stroke-linecap:butt;stroke-linejoin:miter;stroke:rgb(0%,0%,0%);stroke-opacity:1;stroke-miterlimit:10;" d="M 408.4375 559.390625 C 408.4375 562.722656 403.4375 562.722656 403.4375 559.390625 C 403.4375 556.058594 408.4375 556.058594 408.4375 559.390625 "/>
<path style="fill-rule:nonzero;fill:rgb(0%,0%,100%);fill-opacity:1;stroke-width:1;stroke-linecap:butt;stroke-linejoin:miter;stroke:rgb(0%,0%,0%);stroke-opacity:1;stroke-miterlimit:10;" d="M 353.9375 575.089844 C 353.9375 578.421875 348.9375 578.421875 348.9375 575.089844 C 348.9375 571.753906 353.9375 571.753906 353.9375 575.089844 "/>
<path style="fill-rule:nonzero;fill:rgb(0%,0%,100%);fill-opacity:1;stroke-width:1;stroke-linecap:butt;stroke-linejoin:miter;stroke:rgb(0%,0%,0%);stroke-opacity:1;stroke-miterlimit:10;" d="M 231.429688 554.890625 C 231.429688 558.222656 226.429688 558.222656 226.429688 554.890625 C 226.429688 551.558594 231.429688 551.558594 231.429688 554.890625 "/>
<path style="fill-rule:nonzero;fill:rgb(0%,0%,100%);fill-opacity:1;stroke-width:1;stroke-linecap:butt;stroke-linejoin:miter;stroke:rgb(0%,0%,0%);stroke-opacity:1;stroke-miterlimit:10;" d="M 97.570312 314.664062 C 97.570312 317.996094 92.570312 317.996094 92.570312 314.664062 C 92.570312 311.332031 97.570312 311.332031 97.570312 314.664062 "/>
<path style="fill-rule:nonzero;fill:rgb(0%,0%,100%);fill-opacity:1;stroke-width:1;stroke-linecap:butt;stroke-linejoin:miter;stroke:rgb(0%,0%,0%);stroke-opacity:1;stroke-miterlimit:10;" d="M 60.949219 427.550781 C 60.949219 430.882812 55.949219 430.882812 55.949219 427.550781 C 55.949219 424.214844 60.949219 424.214844 60.949219 427.550781 "/>
<path style="fill-rule:nonzero;fill:rgb(0%,0%,100%);fill-opacity:1;stroke-width:1;stroke-linecap:butt;stroke-linejoin:miter;stroke:rgb(0%,0%,0%);stroke-opacity:1;stroke-miterlimit:10;" d="M 389.652344 335.085938 C 389.652344 338.417969 384.652344 338.417969 384.652344 335.085938 C 384.652344 331.75 389.652344 331.75 389.652344 335.085938 "/>
<path style="fill-rule:nonzero;fill:rgb(0%,0%,100%);fill-opacity:1;stroke-width:1;stroke-linecap:butt;stroke-linejoin:miter;stroke:rgb(0%,0%,0%);stroke-opacity:1;stroke-miterlimit:10;" d="M 237.699219 503.21875 C 237.699219 506.550781 232.699219 506.550781 232.699219 503.21875 C 232.699219 499.886719 237.699219 499.886719 237.699219 503.21875 "/>
<path style="fill-rule:nonzero;fill:rgb(0%,0%,100%);fill-opacity:1;stroke-width:1;stroke-linecap:butt;stroke-linejoin:miter;stroke:rgb(0%,0%,0%);stroke-opacity:1;stroke-miterlimit:10;" d="M 114.449219 380.621094 C 114.449219 383.953125 109.449219 383.953125 109.449219 380.621094 C 109.449219 377.285156 114.449219 377.285156 114.449219 380.621094 "/>
<path style="fill-rule:nonzero;fill:rgb(0%,0%,100%);fill-opacity:1;stroke-width:1;stroke-linecap:butt;stroke-linejoin:miter;stroke:rgb(0%,0%,0%);stroke-opacity:1;stroke-miterlimit:10;" d="M 232.976562 144.890625 C 232.976562 148.222656 227.976562 148.222656 227.976562 144.890625 C 227.976562 141.554688 232.976562 141.554688 232.976562 144.890625 "/>
<path style="fill-rule:nonzero;fill:rgb(0%,0%,100%);fill-opacity:1;stroke-width:1;stroke-linecap:butt;stroke-linejoin:miter;stroke:rgb(0%,0%,0%);stroke-opacity:1;stroke-miterlimit:10;" d="M 40.148438 355.929688 C 40.148438 359.265625 35.148438 359.265625 35.148438 355.929688 C 35.148438 352.597656 40.148438 352.597656 40.148438 355.929688 "/>
<path style="fill-rule:nonzero;fill:rgb(0%,0%,100%);fill-opacity:1;stroke-width:1;stroke-linecap:butt;stroke-linejoin:miter;stroke:rgb(0%,0%,0%);stroke-opacity:1;stroke-miterlimit:10;" d="M 436.542969 419.855469 C 436.542969 423.191406 431.542969 423.191406 431.542969 419.855469 C 431.542969 416.523438 436.542969 416.523438 436.542969 419.855469 "/>
<path style="fill-rule:nonzero;fill:rgb(0%,100%,0%);fill-opacity:1;stroke-width:1;stroke-linecap:butt;stroke-linejoin:miter;stroke:rgb(0%,0%,0%);stroke-opacity:1;stroke-miterlimit:10;" d="M 476.113281 454.285156 C 476.113281 457.617188 471.113281 457.617188 471.113281 454.285156 C 471.113281 450.949219 476.113281 450.949219 476.113281 454.285156 "/>
<path style="fill-rule:nonzero;fill:rgb(0%,0%,100%);fill-opacity:1;stroke-width:1;stroke-linecap:butt;stroke-linejoin:miter;stroke:rgb(0%,0%,0%);stroke-opacity:1;stroke-miterlimit:10;" d="M 262.503906 298.644531 C 262.503906 301.980469 257.503906 301.980469 257.503906 298.644531 C 257.503906 295.3125 262.503906 295.3125 262.503906 298.644531 "/>
<path style="fill-rule:nonzero;fill:rgb(0%,100%,0%);fill-opacity:1;stroke-width:1;stroke-linecap:butt;stroke-linejoin:miter;stroke:rgb(0%,0%,0%);stroke-opacity:1;stroke-miterlimit:10;" d="M 35.910156 390.289062 C 35.910156 393.625 30.910156 393.625 30.910156 390.289062 C 30.910156 386.957031 35.910156 386.957031 35.910156 390.289062 "/>
<path style="fill-rule:nonzero;fill:rgb(0%,0%,100%);fill-opacity:1;stroke-width:1;stroke-linecap:butt;stroke-linejoin:miter;stroke:rgb(0%,0%,0%);stroke-opacity:1;stroke-miterlimit:10;" d="M 28.058594 229.472656 C 28.058594 232.804688 23.058594 232.804688 23.058594 229.472656 C 23.058594 226.140625 28.058594 226.140625 28.058594 229.472656 "/>
<path style="fill-rule:nonzero;fill:rgb(0%,0%,100%);fill-opacity:1;stroke-width:1;stroke-linecap:butt;stroke-linejoin:miter;stroke:rgb(0%,0%,0%);stroke-opacity:1;stroke-miterlimit:10;" d="M 69.714844 138.515625 C 69.714844 141.851562 64.714844 141.851562 64.714844 138.515625 C 64.714844 135.183594 69.714844 135.183594 69.714844 138.515625 "/>
<path style="fill-rule:nonzero;fill:rgb(0%,0%,100%);fill-opacity:1;stroke-width:1;stroke-linecap:butt;stroke-linejoin:miter;stroke:rgb(0%,0%,0%);stroke-opacity:1;stroke-miterlimit:10;" d="M 125.691406 521.632812 C 125.691406 524.964844 120.691406 524.964844 120.691406 521.632812 C 120.691406 518.300781 125.691406 518.300781 125.691406 521.632812 "/>
<path style="fill-rule:nonzero;fill:rgb(0%,0%,100%);fill-opacity:1;stroke-width:1;stroke-linecap:butt;stroke-linejoin:miter;stroke:rgb(0%,0%,0%);stroke-opacity:1;stroke-miterlimit:10;" d="M 22.5 321.945312 C 22.5 325.277344 17.5 325.277344 17.5 321.945312 C 17.5 318.613281 22.5 318.613281 22.5 321.945312 "/>
<path style="fill-rule:nonzero;fill:rgb(0%,0%,100%);fill-opacity:1;stroke-width:1;stroke-linecap:butt;stroke-linejoin:miter;stroke:rgb(0%,0%,0%);stroke-opacity:1;stroke-miterlimit:10;" d="M 581.597656 276.734375 C 581.597656 280.066406 576.597656 280.066406 576.597656 276.734375 C 576.597656 273.398438 581.597656 273.398438 581.597656 276.734375 "/>
<path style="fill-rule:nonzero;fill:rgb(0%,0%,100%);fill-opacity:1;stroke-width:1;stroke-linecap:butt;stroke-linejoin:miter;stroke:rgb(0%,0%,0%);stroke-opacity:1;stroke-miterlimit:10;" d="M 207.617188 79.003906 C 207.617188 82.335938 202.617188 82.335938 202.617188 79.003906 C 202.617188 75.671875 207.617188 75.671875 207.617188 79.003906 "/>
<path style="fill-rule:nonzero;fill:rgb(0%,0%,100%);fill-opacity:1;stroke-width:1;stroke-linecap:butt;stroke-linejoin:miter;stroke:rgb(0%,0%,0%);stroke-opacity:1;stroke-miterlimit:10;" d="M 414.523438 440.007812 C 414.523438 443.34375 409.523438 443.34375 409.523438 440.007812 C 409.523438 436.675781 414.523438 436.675781 414.523438 440.007812 "/>
<path style="fill-rule:nonzero;fill:rgb(0%,0%,100%);fill-opacity:1;stroke-width:1;stroke-linecap:butt;stroke-linejoin:miter;stroke:rgb(0%,0%,0%);stroke-opacity:1;stroke-miterlimit:10;" d="M 108.691406 174.65625 C 108.691406 177.992188 103.691406 177.992188 103.691406 174.65625 C 103.691406 171.324219 108.691406 171.324219 108.691406 174.65625 "/>
<path style="fill-rule:nonzero;fill:rgb(0%,0%,100%);fill-opacity:1;stroke-width:1;stroke-linecap:butt;stroke-linejoin:miter;stroke:rgb(0%,0%,0%);stroke-opacity:1;stroke-miterlimit:10;" d="M 87.054688 424.089844 C 87.054688 427.421875 82.054688 427.421875 82.054688 424.089844 C 82.054688 420.753906 87.054688 420.753906 87.054688 424.089844 "/>
<path style="fill-rule:nonzero;fill:rgb(0%,0%,100%);fill-opacity:1;stroke-width:1;stroke-linecap:butt;stroke-linejoin:miter;stroke:rgb(0%,0%,0%);stroke-opacity:1;stroke-miterlimit:10;" d="M 42.976562 305.4375 C 42.976562 308.773438 37.976562 308.773438 37.976562 305.4375 C 37.976562 302.105469 42.976562 302.105469 42.976562 305.4375 "/>
<path style="fill-rule:nonzero;fill:rgb(0%,0%,100%);fill-opacity:1;stroke-width:1;stroke-linecap:butt;stroke-linejoin:miter;stroke:rgb(0%,0%,0%);stroke-opacity:1;stroke-miterlimit:10;" d="M 159.214844 536.050781 C 159.214844 539.382812 154.214844 539.382812 154.214844 536.050781 C 154.214844 532.71875 159.214844 532.71875 159.214844 536.050781 "/>
<path style="fill-rule:nonzero;fill:rgb(0%,0%,100%);fill-opacity:1;stroke-width:1;stroke-linecap:butt;stroke-linejoin:miter;stroke:rgb(0%,0%,0%);stroke-opacity:1;stroke-miterlimit:10;" d="M 277.070312 441.714844 C 277.070312 445.050781 272.070312 445.050781 272.070312 441.714844 C 272.070312 438.382812 277.070312 438.382812 277.070312 441.714844 "/>
<path style="fill-rule:nonzero;fill:rgb(0%,100%,0%);fill-opacity:1;stroke-width:1;stroke-linecap:butt;stroke-linejoin:miter;stroke:rgb(0%,0%,0%);stroke-opacity:1;stroke-miterlimit:10;" d="M 261.636719 358.691406 C 261.636719 362.027344 256.636719 362.027344 256.636719 358.691406 C 256.636719 355.359375 261.636719 355.359375 261.636719 358.691406 "/>
<path style="fill-rule:nonzero;fill:rgb(0%,0%,100%);fill-opacity:1;stroke-width:1;stroke-linecap:butt;stroke-linejoin:miter;stroke:rgb(0%,0%,0%);stroke-opacity:1;stroke-miterlimit:10;" d="M 408.554688 98.601562 C 408.554688 101.9375 403.554688 101.9375 403.554688 98.601562 C 403.554688 95.269531 408.554688 95.269531 408.554688 98.601562 "/>
<path style="fill-rule:nonzero;fill:rgb(0%,0%,100%);fill-opacity:1;stroke-width:1;stroke-linecap:butt;stroke-linejoin:miter;stroke:rgb(0%,0%,0%);stroke-opacity:1;stroke-miterlimit:10;" d="M 197.03125 347.554688 C 197.03125 350.886719 192.03125 350.886719 192.03125 347.554688 C 192.03125 344.222656 197.03125 344.222656 197.03125 347.554688 "/>
<path style="fill-rule:nonzero;fill:rgb(0%,0%,100%);fill-opacity:1;stroke-width:1;stroke-linecap:butt;stroke-linejoin:miter;stroke:rgb(0%,0%,0%);stroke-opacity:1;stroke-miterlimit:10;" d="M 67.929688 219.804688 C 67.929688 223.136719 62.929688 223.136719 62.929688 219.804688 C 62.929688 216.472656 67.929688 216.472656 67.929688 219.804688 "/>
<path style="fill-rule:nonzero;fill:rgb(0%,0%,100%);fill-opacity:1;stroke-width:1;stroke-linecap:butt;stroke-linejoin:miter;stroke:rgb(0%,0%,0%);stroke-opacity:1;stroke-miterlimit:10;" d="M 323.316406 24.625 C 323.316406 27.957031 318.316406 27.957031 318.316406 24.625 C 318.316406 21.292969 323.316406 21.292969 323.316406 24.625 "/>
<path style="fill-rule:nonzero;fill:rgb(0%,0%,100%);fill-opacity:1;stroke-width:1;stroke-linecap:butt;stroke-linejoin:miter;stroke:rgb(0%,0%,0%);stroke-opacity:1;stroke-miterlimit:10;" d="M 249.917969 574.25 C 249.917969 577.585938 244.917969 577.585938 244.917969 574.25 C 244.917969 570.917969 249.917969 570.917969 249.917969 574.25 "/>
<path style="fill-rule:nonzero;fill:rgb(0%,0%,100%);fill-opacity:1;stroke-width:1;stroke-linecap:butt;stroke-linejoin:miter;stroke:rgb(0%,0%,0%);stroke-opacity:1;stroke-miterlimit:10;" d="M 171.949219 432.816406 C 171.949219 436.152344 166.949219 436.152344 166.949219 432.816406 C 166.949219 429.484375 171.949219 429.484375 171.949219 432.816406 "/>
<path style="fill-rule:nonzero;fill:rgb(0%,0%,100%);fill-opacity:1;stroke-width:1;stroke-linecap:butt;stroke-linejoin:miter;stroke:rgb(0%,0%,0%);stroke-opacity:1;stroke-miterlimit:10;" d="M 110.652344 492.675781 C 110.652344 496.011719 105.652344 496.011719 105.652344 492.675781 C 105.652344 489.34375 110.652344 489.34375 110.652344 492.675781 "/>
<path style="fill-rule:nonzero;fill:rgb(0%,100%,0%);fill-opacity:1;stroke-width:1;stroke-linecap:butt;stroke-linejoin:miter;stroke:rgb(0%,0%,0%);stroke-opacity:1;stroke-miterlimit:10;" d="M 282.839844 83.714844 C 282.839844 87.050781 277.839844 87.050781 277.839844 83.714844 C 277.839844 80.382812 282.839844 80.382812 282.839844 83.714844 "/>
<path style="fill-rule:nonzero;fill:rgb(0%,0%,100%);fill-opacity:1;stroke-width:1;stroke-linecap:butt;stroke-linejoin:miter;stroke:rgb(0%,0%,0%);stroke-opacity:1;stroke-miterlimit:10;" d="M 107.761719 94.238281 C 107.761719 97.574219 102.761719 97.574219 102.761719 94.238281 C 102.761719 90.90625 107.761719 90.90625 107.761719 94.238281 "/>
<path style="fill-rule:nonzero;fill:rgb(0%,0%,100%);fill-opacity:1;stroke-width:1;stroke-linecap:butt;stroke-linejoin:miter;stroke:rgb(0%,0%,0%);stroke-opacity:1;stroke-miterlimit:10;" d="M 460.785156 312.378906 C 460.785156 315.710938 455.785156 315.710938 455.785156 312.378906 C 455.785156 309.042969 460.785156 309.042969 460.785156 312.378906 "/>
<path style="fill-rule:nonzero;fill:rgb(0%,0%,100%);fill-opacity:1;stroke-width:1;stroke-linecap:butt;stroke-linejoin:miter;stroke:rgb(0%,0%,0%);stroke-opacity:1;stroke-miterlimit:10;" d="M 559.230469 206.011719 C 559.230469 209.347656 554.230469 209.347656 554.230469 206.011719 C 554.230469 202.679688 559.230469 202.679688 559.230469 206.011719 "/>
<path style="fill-rule:nonzero;fill:rgb(0%,0%,100%);fill-opacity:1;stroke-width:1;stroke-linecap:butt;stroke-linejoin:miter;stroke:rgb(0%,0%,0%);stroke-opacity:1;stroke-miterlimit:10;" d="M 377.214844 542.59375 C 377.214844 545.929688 372.214844 545.929688 372.214844 542.59375 C 372.214844 539.261719 377.214844 539.261719 377.214844 542.59375 "/>
<path style="fill-rule:nonzero;fill:rgb(0%,0%,100%);fill-opacity:1;stroke-width:1;stroke-linecap:butt;stroke-linejoin:miter;stroke:rgb(0%,0%,0%);stroke-opacity:1;stroke-miterlimit:10;" d="M 150.40625 148.539062 C 150.40625 151.871094 145.40625 151.871094 145.40625 148.539062 C 145.40625 145.207031 150.40625 145.207031 150.40625 148.539062 "/>
<path style="fill-rule:nonzero;fill:rgb(0%,100%,0%);fill-opacity:1;stroke-width:1;stroke-linecap:butt;stroke-linejoin:miter;stroke:rgb(0%,0%,0%);stroke-opacity:1;stroke-miterlimit:10;" d="M 525.25 454.835938 C 525.25 458.167969 520.25 458.167969 520.25 454.835938 C 520.25 451.5 525.25 451.5 525.25 454.835938 "/>
<path style="fill-rule:nonzero;fill:rgb(0%,0%,100%);fill-opacity:1;stroke-width:1;stroke-linecap:butt;stroke-linejoin:miter;stroke:rgb(0%,0%,0%);stroke-opacity:1;stroke-miterlimit:10;" d="M 304.425781 567.851562 C 304.425781 571.183594 299.425781 571.183594 299.425781 567.851562 C 299.425781 564.515625 304.425781 564.515625 304.425781 567.851562 "/>
<path style="fill-rule:nonzero;fill:rgb(0%,0%,100%);fill-opacity:1;stroke-width:1;stroke-linecap:butt;stroke-linejoin:miter;stroke:rgb(0%,0%,0%);stroke-opacity:1;stroke-miterlimit:10;" d="M 196.257812 248.394531 C 196.257812 251.730469 191.257812 251.730469 191.257812 248.394531 C 191.257812 245.0625 196.257812 245.0625 196.257812 248.394531 "/>
<path style="fill-rule:nonzero;fill:rgb(0%,100%,0%);fill-opacity:1;stroke-width:1;stroke-linecap:butt;stroke-linejoin:miter;stroke:rgb(0%,0%,0%);stroke-opacity:1;stroke-miterlimit:10;" d="M 430.734375 390.921875 C 430.734375 394.257812 425.734375 394.257812 425.734375 390.921875 C 425.734375 387.589844 430.734375 387.589844 430.734375 390.921875 "/>
<path style="fill-rule:nonzero;fill:rgb(0%,0%,100%);fill-opacity:1;stroke-width:1;stroke-linecap:butt;stroke-linejoin:miter;stroke:rgb(0%,0%,0%);stroke-opacity:1;stroke-miterlimit:10;" d="M 168.316406 56.402344 C 168.316406 59.734375 163.316406 59.734375 163.316406 56.402344 C 163.316406 53.066406 168.316406 53.066406 168.316406 56.402344 "/>
<path style="fill-rule:nonzero;fill:rgb(0%,0%,100%);fill-opacity:1;stroke-width:1;stroke-linecap:butt;stroke-linejoin:miter;stroke:rgb(0%,0%,0%);stroke-opacity:1;stroke-miterlimit:10;" d="M 261.050781 68.234375 C 261.050781 71.566406 256.050781 71.566406 256.050781 68.234375 C 256.050781 64.898438 261.050781 64.898438 261.050781 68.234375 "/>
<path style="fill-rule:nonzero;fill:rgb(0%,0%,100%);fill-opacity:1;stroke-width:1;stroke-linecap:butt;stroke-linejoin:miter;stroke:rgb(0%,0%,0%);stroke-opacity:1;stroke-miterlimit:10;" d="M 142.46875 303.429688 C 142.46875 306.765625 137.46875 306.765625 137.46875 303.429688 C 137.46875 300.097656 142.46875 300.097656 142.46875 303.429688 "/>
<path style="fill-rule:nonzero;fill:rgb(0%,0%,100%);fill-opacity:1;stroke-width:1;stroke-linecap:butt;stroke-linejoin:miter;stroke:rgb(0%,0%,0%);stroke-opacity:1;stroke-miterlimit:10;" d="M 169.453125 247.082031 C 169.453125 250.414062 164.453125 250.414062 164.453125 247.082031 C 164.453125 243.746094 169.453125 243.746094 169.453125 247.082031 "/>
<path style="fill-rule:nonzero;fill:rgb(0%,0%,100%);fill-opacity:1;stroke-width:1;stroke-linecap:butt;stroke-linejoin:miter;stroke:rgb(0%,0%,0%);stroke-opacity:1;stroke-miterlimit:10;" d="M 468.785156 286.914062 C 468.785156 290.246094 463.785156 290.246094 463.785156 286.914062 C 463.785156 283.578125 468.785156 283.578125 468.785156 286.914062 "/>
<path style="fill-rule:nonzero;fill:rgb(0%,0%,100%);fill-opacity:1;stroke-width:1;stroke-linecap:butt;stroke-linejoin:miter;stroke:rgb(0%,0%,0%);stroke-opacity:1;stroke-miterlimit:10;" d="M 311.074219 146.175781 C 311.074219 149.507812 306.074219 149.507812 306.074219 146.175781 C 306.074219 142.839844 311.074219 142.839844 311.074219 146.175781 "/>
<path style="fill-rule:nonzero;fill:rgb(0%,0%,100%);fill-opacity:1;stroke-width:1;stroke-linecap:butt;stroke-linejoin:miter;stroke:rgb(0%,0%,0%);stroke-opacity:1;stroke-miterlimit:10;" d="M 406.496094 181.519531 C 406.496094 184.855469 401.496094 184.855469 401.496094 181.519531 C 401.496094 178.1875 406.496094 178.1875 406.496094 181.519531 "/>
<path style="fill-rule:nonzero;fill:rgb(0%,0%,100%);fill-opacity:1;stroke-width:1;stroke-linecap:butt;stroke-linejoin:miter;stroke:rgb(0%,0%,0%);stroke-opacity:1;stroke-miterlimit:10;" d="M 430.625 56.695312 C 430.625 60.027344 425.625 60.027344 425.625 56.695312 C 425.625 53.359375 430.625 53.359375 430.625 56.695312 "/>
<path style="fill-rule:nonzero;fill:rgb(0%,0%,100%);fill-opacity:1;stroke-width:1;stroke-linecap:butt;stroke-linejoin:miter;stroke:rgb(0%,0%,0%);stroke-opacity:1;stroke-miterlimit:10;" d="M 432.1875 84.746094 C 432.1875 88.078125 427.1875 88.078125 427.1875 84.746094 C 427.1875 81.410156 432.1875 81.410156 432.1875 84.746094 "/>
<path style="fill-rule:nonzero;fill:rgb(0%,0%,100%);fill-opacity:1;stroke-width:1;stroke-linecap:butt;stroke-linejoin:miter;stroke:rgb(0%,0%,0%);stroke-opacity:1;stroke-miterlimit:10;" d="M 519.28125 272.246094 C 519.28125 275.578125 514.28125 275.578125 514.28125 272.246094 C 514.28125 268.914062 519.28125 268.914062 519.28125 272.246094 "/>
<path style="fill-rule:nonzero;fill:rgb(0%,0%,100%);fill-opacity:1;stroke-width:1;stroke-linecap:butt;stroke-linejoin:miter;stroke:rgb(0%,0%,0%);stroke-opacity:1;stroke-miterlimit:10;" d="M 582.5 326.132812 C 582.5 329.46875 577.5 329.46875 577.5 326.132812 C 577.5 322.800781 582.5 322.800781 582.5 326.132812 "/>
<path style="fill-rule:nonzero;fill:rgb(0%,0%,100%);fill-opacity:1;stroke-width:1;stroke-linecap:butt;stroke-linejoin:miter;stroke:rgb(0%,0%,0%);stroke-opacity:1;stroke-miterlimit:10;" d="M 492.144531 273.363281 C 492.144531 276.699219 487.144531 276.699219 487.144531 273.363281 C 487.144531 270.03125 492.144531 270.03125 492.144531 273.363281 "/>
<path style="fill-rule:nonzero;fill:rgb(0%,0%,100%);fill-opacity:1;stroke-width:1;stroke-linecap:butt;stroke-linejoin:miter;stroke:rgb(0%,0%,0%);stroke-opacity:1;stroke-miterlimit:10;" d="M 167.074219 127.511719 C 167.074219 130.84375 162.074219 130.84375 162.074219 127.511719 C 162.074219 124.179688 167.074219 124.179688 167.074219 127.511719 "/>
<path style="fill-rule:nonzero;fill:rgb(0%,0%,100%);fill-opacity:1;stroke-width:1;stroke-linecap:butt;stroke-linejoin:miter;stroke:rgb(0%,0%,0%);stroke-opacity:1;stroke-miterlimit:10;" d="M 457.265625 437.21875 C 457.265625 440.550781 452.265625 440.550781 452.265625 437.21875 C 452.265625 433.886719 457.265625 433.886719 457.265625 437.21875 "/>
<path style="fill-rule:nonzero;fill:rgb(0%,0%,100%);fill-opacity:1;stroke-width:1;stroke-linecap:butt;stroke-linejoin:miter;stroke:rgb(0%,0%,0%);stroke-opacity:1;stroke-miterlimit:10;" d="M 493.53125 95.5 C 493.53125 98.832031 488.53125 98.832031 488.53125 95.5 C 488.53125 92.167969 493.53125 92.167969 493.53125 95.5 "/>
<path style="fill-rule:nonzero;fill:rgb(0%,0%,100%);fill-opacity:1;stroke-width:1;stroke-linecap:butt;stroke-linejoin:miter;stroke:rgb(0%,0%,0%);stroke-opacity:1;stroke-miterlimit:10;" d="M 462.464844 340.421875 C 462.464844 343.757812 457.464844 343.757812 457.464844 340.421875 C 457.464844 337.089844 462.464844 337.089844 462.464844 340.421875 "/>
<path style="fill-rule:nonzero;fill:rgb(0%,0%,100%);fill-opacity:1;stroke-width:1;stroke-linecap:butt;stroke-linejoin:miter;stroke:rgb(0%,0%,0%);stroke-opacity:1;stroke-miterlimit:10;" d="M 328.054688 580 C 328.054688 583.332031 323.054688 583.332031 323.054688 580 C 323.054688 576.667969 328.054688 576.667969 328.054688 580 "/>
<path style="fill-rule:nonzero;fill:rgb(0%,0%,100%);fill-opacity:1;stroke-width:1;stroke-linecap:butt;stroke-linejoin:miter;stroke:rgb(0%,0%,0%);stroke-opacity:1;stroke-miterlimit:10;" d="M 456.972656 97.042969 C 456.972656 100.375 451.972656 100.375 451.972656 97.042969 C 451.972656 93.707031 456.972656 93.707031 456.972656 97.042969 "/>
<path style="fill-rule:nonzero;fill:rgb(0%,0%,100%);fill-opacity:1;stroke-width:1;stroke-linecap:butt;stroke-linejoin:miter;stroke:rgb(0%,0%,0%);stroke-opacity:1;stroke-miterlimit:10;" d="M 48 178.785156 C 48 182.117188 43 182.117188 43 178.785156 C 43 175.449219 48 175.449219 48 178.785156 "/>
<path style="fill-rule:nonzero;fill:rgb(0%,0%,100%);fill-opacity:1;stroke-width:1;stroke-linecap:butt;stroke-linejoin:miter;stroke:rgb(0%,0%,0%);stroke-opacity:1;stroke-miterlimit:10;" d="M 27.46875 268.671875 C 27.46875 272.003906 22.46875 272.003906 22.46875 268.671875 C 22.46875 265.335938 27.46875 265.335938 27.46875 268.671875 "/>
<path style="fill-rule:nonzero;fill:rgb(0%,0%,100%);fill-opacity:1;stroke-width:1;stroke-linecap:butt;stroke-linejoin:miter;stroke:rgb(0%,0%,0%);stroke-opacity:1;stroke-miterlimit:10;" d="M 107.464844 406.808594 C 107.464844 410.144531 102.464844 410.144531 102.464844 406.808594 C 102.464844 403.476562 107.464844 403.476562 107.464844 406.808594 "/>
<path style="fill-rule:nonzero;fill:rgb(0%,0%,100%);fill-opacity:1;stroke-width:1;stroke-linecap:butt;stroke-linejoin:miter;stroke:rgb(0%,0%,0%);stroke-opacity:1;stroke-miterlimit:10;" d="M 185.648438 560.386719 C 185.648438 563.71875 180.648438 563.71875 180.648438 560.386719 C 180.648438 557.050781 185.648438 557.050781 185.648438 560.386719 "/>
<path style="fill-rule:nonzero;fill:rgb(0%,0%,100%);fill-opacity:1;stroke-width:1;stroke-linecap:butt;stroke-linejoin:miter;stroke:rgb(0%,0%,0%);stroke-opacity:1;stroke-miterlimit:10;" d="M 569.839844 230.738281 C 569.839844 234.070312 564.839844 234.070312 564.839844 230.738281 C 564.839844 227.40625 569.839844 227.40625 569.839844 230.738281 "/>
<path style="fill-rule:nonzero;fill:rgb(0%,0%,100%);fill-opacity:1;stroke-width:1;stroke-linecap:butt;stroke-linejoin:miter;stroke:rgb(0%,0%,0%);stroke-opacity:1;stroke-miterlimit:10;" d="M 487.46875 168.828125 C 487.46875 172.160156 482.46875 172.160156 482.46875 168.828125 C 482.46875 165.492188 487.46875 165.492188 487.46875 168.828125 "/>
<path style="fill-rule:nonzero;fill:rgb(0%,0%,100%);fill-opacity:1;stroke-width:1;stroke-linecap:butt;stroke-linejoin:miter;stroke:rgb(0%,0%,0%);stroke-opacity:1;stroke-miterlimit:10;" d="M 354.746094 28.363281 C 354.746094 31.695312 349.746094 31.695312 349.746094 28.363281 C 349.746094 25.027344 354.746094 25.027344 354.746094 28.363281 "/>
<path style="fill-rule:nonzero;fill:rgb(0%,0%,100%);fill-opacity:1;stroke-width:1;stroke-linecap:butt;stroke-linejoin:miter;stroke:rgb(0%,0%,0%);stroke-opacity:1;stroke-miterlimit:10;" d="M 345.796875 198.859375 C 345.796875 202.191406 340.796875 202.191406 340.796875 198.859375 C 340.796875 195.523438 345.796875 195.523438 345.796875 198.859375 "/>
<path style="fill-rule:nonzero;fill:rgb(0%,0%,100%);fill-opacity:1;stroke-width:1;stroke-linecap:butt;stroke-linejoin:miter;stroke:rgb(0%,0%,0%);stroke-opacity:1;stroke-miterlimit:10;" d="M 513.835938 173.589844 C 513.835938 176.925781 508.835938 176.925781 508.835938 173.589844 C 508.835938 170.257812 513.835938 170.257812 513.835938 173.589844 "/>
<path style="fill-rule:nonzero;fill:rgb(0%,0%,100%);fill-opacity:1;stroke-width:1;stroke-linecap:butt;stroke-linejoin:miter;stroke:rgb(0%,0%,0%);stroke-opacity:1;stroke-miterlimit:10;" d="M 401.097656 394.234375 C 401.097656 397.570312 396.097656 397.570312 396.097656 394.234375 C 396.097656 390.902344 401.097656 390.902344 401.097656 394.234375 "/>
<path style="fill-rule:nonzero;fill:rgb(0%,0%,100%);fill-opacity:1;stroke-width:1;stroke-linecap:butt;stroke-linejoin:miter;stroke:rgb(0%,0%,0%);stroke-opacity:1;stroke-miterlimit:10;" d="M 243.871094 23.296875 C 243.871094 26.628906 238.871094 26.628906 238.871094 23.296875 C 238.871094 19.964844 243.871094 19.964844 243.871094 23.296875 "/>
<path style="fill-rule:nonzero;fill:rgb(0%,0%,100%);fill-opacity:1;stroke-width:1;stroke-linecap:butt;stroke-linejoin:miter;stroke:rgb(0%,0%,0%);stroke-opacity:1;stroke-miterlimit:10;" d="M 432.113281 548.410156 C 432.113281 551.742188 427.113281 551.742188 427.113281 548.410156 C 427.113281 545.074219 432.113281 545.074219 432.113281 548.410156 "/>
<path style="fill-rule:nonzero;fill:rgb(0%,100%,0%);fill-opacity:1;stroke-width:1;stroke-linecap:butt;stroke-linejoin:miter;stroke:rgb(0%,0%,0%);stroke-opacity:1;stroke-miterlimit:10;" d="M 440.636719 361.910156 C 440.636719 365.242188 435.636719 365.242188 435.636719 361.910156 C 435.636719 358.574219 440.636719 358.574219 440.636719 361.910156 "/>
</g>
</svg>
